<svg version="1.1" id="Layer_1" xmlns="http://www.w3.org/2000/svg" xmlns:xlink="http://www.w3.org/1999/xlink" x="0px" y="0px"
	 width="100%" viewBox="0 0 512 512" enable-background="new 0 0 512 512" xml:space="preserve">
<path fill="#000000" opacity="1.000000" stroke="none" 
	d="
M513.000000,180.000000 
	C513.000000,291.306274 513.000000,402.112549 513.000000,512.959412 
	C342.402039,512.959412 171.804092,512.959412 1.103063,512.959412 
	C1.103063,342.443756 1.103063,171.887421 1.103063,1.165548 
	C171.666534,1.165548 342.333252,1.165548 513.000000,1.165548 
	C513.000000,60.529209 513.000000,120.014603 513.000000,180.000000 
M492.971497,209.199585 
	C490.667664,200.760056 488.363831,192.320526 486.009644,183.102493 
	C483.284058,176.069061 480.558472,169.035629 477.961945,161.269791 
	C475.252380,155.847290 472.542816,150.424774 469.747345,144.304031 
	C466.118195,138.204117 462.489075,132.104218 458.801941,125.320419 
	C449.988800,114.183174 442.072998,102.155220 432.130646,92.138824 
	C420.262268,80.182121 407.122375,69.337433 393.684296,59.128567 
	C378.341095,47.472366 360.925018,39.203049 342.230927,32.006100 
	C335.865173,29.982195 329.499390,27.958290 322.727142,25.250908 
	C316.150909,23.889675 309.574646,22.528442 302.190002,21.000212 
	C296.125183,20.056076 290.060364,19.111940 283.131042,18.031565 
	C270.754517,17.742205 258.377960,17.452845 245.094818,17.028557 
	C238.062210,17.740736 231.029617,18.452917 223.171112,19.032766 
	C221.432556,19.356457 219.667938,19.579176 217.959656,20.020174 
	C206.620789,22.947369 195.293961,25.921329 183.178085,28.988613 
	C168.655594,33.212231 154.996536,39.421268 141.265152,47.231178 
	C139.017548,48.481354 136.635178,49.540413 134.545151,51.014080 
	C124.305374,58.234043 114.143417,65.564377 103.345169,73.159096 
	C100.759033,75.418556 97.933090,77.458427 95.628258,79.975471 
	C85.630394,90.893837 75.784592,101.951439 65.272469,113.272331 
	C64.767365,114.101089 64.259521,114.928192 63.757587,115.758873 
	C56.467091,127.824211 49.177395,139.890030 41.252991,152.295151 
	C39.518322,156.113129 37.561184,159.847946 36.096241,163.766754 
	C33.227032,171.442078 30.632250,179.220001 27.257950,187.359222 
	C26.901089,188.752243 26.501738,190.135971 26.194370,191.539825 
	C24.412910,199.676437 22.653128,207.817780 20.188866,216.392609 
	C20.098963,218.044495 20.064816,219.701645 19.909969,221.347412 
	C19.011112,230.900833 18.083853,240.451584 17.023880,250.930557 
	C17.071419,263.954834 17.118959,276.979126 17.023842,290.930634 
	C17.071873,304.954895 17.119905,318.979126 17.025387,333.930634 
	C17.072586,369.288239 17.119787,404.645874 17.024019,440.930756 
	C17.014820,454.593292 17.093758,468.256714 16.959608,481.918030 
	C16.891529,488.851105 20.052937,493.714020 26.313761,495.981323 
	C32.351566,498.167908 38.774822,498.297211 43.842293,493.561829 
	C50.150562,487.666931 56.000618,481.281738 62.671005,474.846741 
	C69.131699,468.376862 75.317451,461.600494 82.113556,455.504547 
	C94.147614,444.710236 105.250816,444.442993 117.329842,453.033569 
	C133.908173,464.824127 151.625931,474.392273 170.515732,481.657410 
	C180.703262,485.575623 191.449936,488.040070 202.348816,491.859985 
	C209.363754,492.960022 216.349213,494.332458 223.400589,495.095947 
	C233.908264,496.233734 244.462448,496.941864 255.915665,497.981964 
	C266.742310,497.316193 277.589935,496.878845 288.386536,495.886536 
	C293.638947,495.403778 298.796021,493.883789 304.817780,492.981598 
	C317.226318,489.359314 329.634827,485.737030 342.814087,482.017059 
	C352.896454,477.376984 362.978821,472.736908 373.712219,467.806671 
	C384.180450,460.884949 394.648651,453.963226 405.735962,446.779083 
	C413.839661,439.222870 421.943390,431.666687 430.665741,423.839813 
	C437.812714,415.243225 444.959717,406.646667 452.741669,397.772858 
	C453.575226,396.595886 454.500885,395.472931 455.227570,394.233337 
	C460.520294,385.205170 465.772919,376.153564 471.527771,366.924896 
	C471.626495,366.622284 471.725220,366.319702 471.985077,365.533813 
	C472.025208,365.368805 472.065308,365.203827 472.733490,364.702728 
	C477.766907,351.469849 482.800354,338.236938 488.194763,324.302094 
	C492.262329,310.482330 495.333618,296.475830 496.823853,281.549286 
	C496.827026,266.701050 496.830200,251.852798 496.976715,236.144058 
	C495.595581,227.430145 494.214447,218.716232 492.971497,209.199585 
z"/>
<path fill="#FDC80E" opacity="1.000000" stroke="none" 
	d="
M201.944321,491.160461 
	C191.449936,488.040070 180.703262,485.575623 170.515732,481.657410 
	C151.625931,474.392273 133.908173,464.824127 117.329842,453.033569 
	C105.250816,444.442993 94.147614,444.710236 82.113556,455.504547 
	C75.317451,461.600494 69.131699,468.376862 62.188404,474.680664 
	C61.046986,473.769836 60.477230,472.915436 59.715748,472.297180 
	C50.707832,464.983551 41.780125,457.564240 32.598267,450.474579 
	C27.687340,446.682648 22.325396,443.474884 17.166988,440.003479 
	C17.119787,404.645874 17.072586,369.288239 17.432581,333.536102 
	C22.739656,336.773560 27.632637,340.414917 32.541260,344.035034 
	C37.964069,348.034332 43.401173,352.014252 48.903313,356.466431 
	C48.974579,384.800751 48.974579,412.671326 48.974579,440.589813 
	C55.778992,434.770355 61.936722,429.061646 68.557236,423.952606 
	C77.031815,417.412842 87.200500,414.882172 97.606400,414.205475 
	C103.004448,413.854492 108.529099,415.450470 114.019058,416.520081 
	C114.798691,418.097412 115.294533,419.645294 116.351257,420.498199 
	C140.721390,440.167999 165.197327,459.706848 189.531296,479.421021 
	C193.943375,482.995453 197.820312,487.230438 201.944321,491.160461 
z"/>
<path fill="#FCC211" opacity="1.000000" stroke="none" 
	d="
M202.146576,491.510223 
	C197.820312,487.230438 193.943375,482.995453 189.531296,479.421021 
	C165.197327,459.706848 140.721390,440.167999 116.351257,420.498199 
	C115.294533,419.645294 114.798691,418.097412 114.411942,416.446167 
	C115.422493,416.111877 116.077858,416.145752 116.700630,416.306152 
	C129.402527,419.578125 139.250366,428.104706 150.084747,434.730896 
	C169.056763,446.334045 189.465927,454.091522 211.161469,459.331665 
	C211.552170,459.694550 211.811691,459.847717 212.070160,459.963837 
	C212.040497,459.975281 212.065659,459.916840 212.114532,460.260315 
	C213.611969,462.380524 214.808594,464.466766 216.549835,465.883820 
	C228.251648,475.407013 240.085007,484.768402 251.825592,494.244385 
	C253.050293,495.232849 253.947632,496.626923 254.996857,497.832794 
	C244.462448,496.941864 233.908264,496.233734 223.400589,495.095947 
	C216.349213,494.332458 209.363754,492.960022 202.146576,491.510223 
z"/>
<path fill="#EB4E3B" opacity="1.000000" stroke="none" 
	d="
M477.832886,162.002197 
	C480.558472,169.035629 483.284058,176.069061 485.805176,183.686798 
	C484.014435,183.582062 482.179108,183.202240 480.880432,182.156189 
	C467.882751,171.687332 455.046112,161.017502 441.988281,150.625168 
	C438.703827,148.011139 434.790466,146.187363 431.010681,143.687683 
	C419.585754,128.248611 408.499023,112.935478 393.538269,101.098442 
	C385.358673,94.626717 377.277679,87.909622 368.479401,82.372269 
	C358.361511,76.004448 347.500214,70.817909 336.907776,64.772018 
	C335.990814,63.246033 335.332733,61.812569 334.233704,60.925377 
	C321.634338,50.754753 308.859222,40.798767 296.377350,30.487322 
	C291.907898,26.795033 288.103485,22.297697 283.995544,18.167805 
	C290.060364,19.111940 296.125183,20.056076 302.669983,21.408953 
	C307.175842,25.458675 311.048950,29.287285 315.252716,32.709812 
	C340.209839,53.028885 365.220215,73.282806 390.258240,93.502182 
	C413.747223,112.470612 437.234589,131.442032 460.857269,150.243042 
	C466.231323,154.520187 472.159668,158.100906 477.832886,162.002197 
z"/>
<path fill="#FBBB17" opacity="1.000000" stroke="none" 
	d="
M255.456268,497.907379 
	C253.947632,496.626923 253.050293,495.232849 251.825592,494.244385 
	C240.085007,484.768402 228.251648,475.407013 216.549835,465.883820 
	C214.808594,464.466766 213.611969,462.380524 212.537903,460.295319 
	C220.487152,461.092529 228.036484,462.441162 235.643616,463.237946 
	C243.813873,464.093658 252.031647,464.614990 260.242126,464.918549 
	C264.478638,465.075165 268.744293,464.442719 273.018921,464.519531 
	C273.887482,466.245483 274.451813,467.959381 275.628540,468.933685 
	C281.122864,473.483124 286.876038,477.720520 292.359283,482.282654 
	C296.380676,485.628418 300.127228,489.304443 303.996246,492.833313 
	C298.796021,493.883789 293.638947,495.403778 288.386536,495.886536 
	C277.589935,496.878845 266.742310,497.316193 255.456268,497.907379 
z"/>
<path fill="#EA483A" opacity="1.000000" stroke="none" 
	d="
M477.897400,161.635986 
	C472.159668,158.100906 466.231323,154.520187 460.857269,150.243042 
	C437.234589,131.442032 413.747223,112.470612 390.258240,93.502182 
	C365.220215,73.282806 340.209839,53.028885 315.252716,32.709812 
	C311.048950,29.287285 307.175842,25.458675 303.074158,21.492451 
	C309.574646,22.528442 316.150909,23.889675 322.736115,25.819214 
	C323.227203,27.295944 323.489471,28.473171 324.223541,29.073549 
	C343.128662,44.535728 362.042358,59.988056 381.038788,75.337852 
	C406.367554,95.804443 431.729614,116.230400 457.175995,136.550339 
	C461.126007,139.704605 465.601013,142.201447 469.833252,145.002289 
	C472.542816,150.424774 475.252380,155.847290 477.897400,161.635986 
z"/>
<path fill="#F3903D" opacity="1.000000" stroke="none" 
	d="
M65.883514,112.958427 
	C75.784592,101.951439 85.630394,90.893837 95.628258,79.975471 
	C97.933090,77.458427 100.759033,75.418556 103.720139,73.354607 
	C108.751671,77.713486 113.479942,81.800171 118.041367,86.065285 
	C121.489204,89.289139 124.723892,92.740959 127.894577,96.394485 
	C124.082718,99.705269 120.087624,102.386330 116.843910,105.784607 
	C108.665596,114.352631 100.825844,123.243813 92.520134,131.928040 
	C88.618286,129.225845 85.072075,126.565689 81.469063,123.984825 
	C76.295586,120.279053 71.080711,116.631081 65.883514,112.958427 
z"/>
<path fill="#EE6C3C" opacity="1.000000" stroke="none" 
	d="
M496.833374,237.004547 
	C496.830200,251.852798 496.827026,266.701050 496.100098,281.769043 
	C490.860809,278.769806 486.388245,275.488281 481.818787,272.347717 
	C476.208466,268.491760 470.517242,264.753571 464.917450,260.518921 
	C464.141266,243.255585 463.149323,226.456329 459.519653,210.024872 
	C465.807159,214.419556 471.723969,218.817215 477.680389,223.160629 
	C484.045227,227.801956 490.447449,232.392090 496.833374,237.004547 
z"/>
<path fill="#F1823E" opacity="1.000000" stroke="none" 
	d="
M128.053452,96.091316 
	C124.723892,92.740959 121.489204,89.289139 118.041367,86.065285 
	C113.479942,81.800171 108.751671,77.713486 104.024536,73.202911 
	C114.143417,65.564377 124.305374,58.234043 134.545151,51.014080 
	C136.635178,49.540413 139.017548,48.481354 141.877991,47.259186 
	C151.614487,54.664635 160.738144,62.042072 169.575760,69.666290 
	C154.606155,77.161362 140.732681,85.685745 128.053452,96.091316 
z"/>
<path fill="#FED117" opacity="1.000000" stroke="none" 
	d="
M17.095505,440.467102 
	C22.325396,443.474884 27.687340,446.682648 32.598267,450.474579 
	C41.780125,457.564240 50.707832,464.983551 59.715748,472.297180 
	C60.477230,472.915436 61.046986,473.769836 61.877167,474.811401 
	C56.000618,481.281738 50.150562,487.666931 43.842293,493.561829 
	C38.774822,498.297211 32.351566,498.167908 26.313761,495.981323 
	C20.052937,493.714020 16.891529,488.851105 16.959608,481.918030 
	C17.093758,468.256714 17.014820,454.593292 17.095505,440.467102 
z"/>
<path fill="#F59C34" opacity="1.000000" stroke="none" 
	d="
M65.577988,113.115379 
	C71.080711,116.631081 76.295586,120.279053 81.469063,123.984825 
	C85.072075,126.565689 88.618286,129.225845 92.495361,132.268280 
	C91.861900,133.810959 90.749275,134.832886 90.010933,136.076965 
	C82.917015,148.029907 75.886208,160.020309 68.501068,171.929947 
	C66.633652,170.929474 64.994232,170.138214 63.589512,169.045303 
	C56.322472,163.391220 49.115448,157.660034 41.887505,151.955734 
	C49.177395,139.890030 56.467091,127.824211 63.757587,115.758873 
	C64.259521,114.928192 64.767365,114.101089 65.577988,113.115379 
z"/>
<path fill="#EF763D" opacity="1.000000" stroke="none" 
	d="
M169.861786,69.419510 
	C160.738144,62.042072 151.614487,54.664635 142.198364,47.112282 
	C154.996536,39.421268 168.655594,33.212231 183.640305,29.280056 
	C184.972107,30.746271 185.648773,32.155338 186.743469,33.056694 
	C192.596863,37.876259 198.669617,42.434933 204.422714,47.368149 
	C206.914780,49.505081 208.822205,52.323853 210.644440,55.010483 
	C196.816391,59.931870 183.339081,64.675690 169.861786,69.419510 
z"/>
<path fill="#EB563B" opacity="1.000000" stroke="none" 
	d="
M283.563293,18.099686 
	C288.103485,22.297697 291.907898,26.795033 296.377350,30.487322 
	C308.859222,40.798767 321.634338,50.754753 334.233704,60.925377 
	C335.332733,61.812569 335.990814,63.246033 336.522675,64.720093 
	C326.345825,61.967289 316.572388,58.653275 306.631073,55.958569 
	C298.862640,53.852856 290.885895,52.515751 282.926575,50.511078 
	C281.834595,48.903416 281.007355,47.389992 279.769989,46.378033 
	C272.098724,40.104134 264.223572,34.075397 256.649536,27.688438 
	C252.846237,24.481241 249.535110,20.690390 246.001419,17.163486 
	C258.377960,17.452845 270.754517,17.742205 283.563293,18.099686 
z"/>
<path fill="#EF763D" opacity="1.000000" stroke="none" 
	d="
M464.861023,260.964478 
	C470.517242,264.753571 476.208466,268.491760 481.818787,272.347717 
	C486.388245,275.488281 490.860809,278.769806 495.746094,282.014557 
	C495.333618,296.475830 492.262329,310.482330 487.678101,324.582275 
	C484.313232,322.945282 481.417389,321.094635 478.626282,319.097595 
	C472.112946,314.437408 465.649994,309.706818 459.094635,304.599518 
	C460.683136,290.986176 462.333191,277.776672 464.021362,264.572083 
	C464.177155,263.353699 464.575378,262.166290 464.861023,260.964478 
z"/>
<path fill="#E93F3A" opacity="1.000000" stroke="none" 
	d="
M342.991913,32.148323 
	C360.925018,39.203049 378.341095,47.472366 393.684296,59.128567 
	C407.122375,69.337433 420.262268,80.182121 432.130646,92.138824 
	C442.072998,102.155220 449.988800,114.183174 458.475891,125.639671 
	C456.143341,124.843559 453.943756,123.973167 452.164062,122.570129 
	C444.736328,116.714394 437.459137,110.668282 430.082581,104.746895 
	C403.554321,83.451805 376.966034,62.231003 350.528168,40.824417 
	C347.596436,38.450623 345.484192,35.064800 342.991913,32.148323 
z"/>
<path fill="#F1823E" opacity="1.000000" stroke="none" 
	d="
M459.166626,305.004730 
	C465.649994,309.706818 472.112946,314.437408 478.626282,319.097595 
	C481.417389,321.094635 484.313232,322.945282 487.497620,324.933228 
	C482.800354,338.236938 477.766907,351.469849 472.065186,364.804291 
	C462.782043,357.986664 454.167236,351.067505 445.731171,343.843384 
	C450.328857,330.693878 454.747742,317.849304 459.166626,305.004730 
z"/>
<path fill="#EE6C3C" opacity="1.000000" stroke="none" 
	d="
M210.995178,54.832909 
	C208.822205,52.323853 206.914780,49.505081 204.422714,47.368149 
	C198.669617,42.434933 192.596863,37.876259 186.743469,33.056694 
	C185.648773,32.155338 184.972107,30.746271 184.032867,29.225788 
	C195.293961,25.921329 206.620789,22.947369 217.959656,20.020174 
	C219.667938,19.579176 221.432556,19.356457 223.660645,19.424603 
	C230.750839,25.533901 237.385834,31.212391 243.940216,36.982449 
	C248.351807,40.866161 252.649475,44.879311 256.569122,48.902466 
	C252.590897,49.312710 249.037323,49.615593 245.493439,50.006500 
	C240.016342,50.610664 234.531342,51.171936 229.076508,51.941402 
	C223.033676,52.793808 217.020996,53.859879 210.995178,54.832909 
z"/>
<path fill="#F9B31F" opacity="1.000000" stroke="none" 
	d="
M304.407013,492.907440 
	C300.127228,489.304443 296.380676,485.628418 292.359283,482.282654 
	C286.876038,477.720520 281.122864,473.483124 275.628540,468.933685 
	C274.451813,467.959381 273.887482,466.245483 273.448578,464.445190 
	C287.572815,461.397736 301.289551,458.777313 315.080475,456.482544 
	C320.795471,461.888123 326.501526,466.898071 332.053101,472.073669 
	C335.504150,475.290955 338.721252,478.759125 342.043365,482.114746 
	C329.634827,485.737030 317.226318,489.359314 304.407013,492.907440 
z"/>
<path fill="#FCBF13" opacity="1.000000" stroke="none" 
	d="
M48.832039,356.002655 
	C43.401173,352.014252 37.964069,348.034332 32.541260,344.035034 
	C27.632637,340.414917 22.739656,336.773560 17.503857,333.072479 
	C17.119905,318.979126 17.071873,304.954895 17.446079,290.487366 
	C21.054947,292.339966 24.272692,294.594025 27.421911,296.940063 
	C34.576992,302.270294 41.698387,307.645721 48.904800,313.466492 
	C48.928097,327.954346 48.880066,341.978485 48.832039,356.002655 
z"/>
<path fill="#EA443A" opacity="1.000000" stroke="none" 
	d="
M342.611420,32.077213 
	C345.484192,35.064800 347.596436,38.450623 350.528168,40.824417 
	C376.966034,62.231003 403.554321,83.451805 430.082581,104.746895 
	C437.459137,110.668282 444.736328,116.714394 452.164062,122.570129 
	C453.943756,123.973167 456.143341,124.843559 458.504883,125.981621 
	C462.489075,132.104218 466.118195,138.204117 469.790283,144.653168 
	C465.601013,142.201447 461.126007,139.704605 457.175995,136.550339 
	C431.729614,116.230400 406.367554,95.804443 381.038788,75.337852 
	C362.042358,59.988056 343.128662,44.535728 324.223541,29.073549 
	C323.489471,28.473171 323.227203,27.295944 322.939362,26.160952 
	C329.499390,27.958290 335.865173,29.982195 342.611420,32.077213 
z"/>
<path fill="#FAB81A" opacity="1.000000" stroke="none" 
	d="
M48.833466,313.002777 
	C41.698387,307.645721 34.576992,302.270294 27.421911,296.940063 
	C24.272692,294.594025 21.054947,292.339966 17.517406,290.023743 
	C17.118959,276.979126 17.071419,263.954834 17.453249,250.487335 
	C23.305929,253.912903 28.721876,257.792053 34.154743,261.647369 
	C39.038086,265.112732 43.940006,268.551971 48.904903,272.466431 
	C48.928539,286.287689 48.881001,299.645233 48.833466,313.002777 
z"/>
<path fill="#F38E3F" opacity="1.000000" stroke="none" 
	d="
M445.552399,344.148315 
	C454.167236,351.067505 462.782043,357.986664 471.751160,364.972351 
	C472.065308,365.203827 472.025208,365.368805 471.742676,365.934174 
	C471.296295,366.563019 471.142303,366.821320 471.038208,367.109375 
	C465.772919,376.153564 460.520294,385.205170 455.227570,394.233337 
	C454.500885,395.472931 453.575226,396.595886 452.098755,397.764404 
	C449.630249,396.672455 447.674011,395.759125 446.001770,394.475708 
	C439.061401,389.149109 432.206726,383.710785 425.506165,378.092651 
	C432.311981,366.630646 438.932190,355.389465 445.552399,344.148315 
z"/>
<path fill="#F59C34" opacity="1.000000" stroke="none" 
	d="
M430.047119,424.110504 
	C421.943390,431.666687 413.839661,439.222870 405.054962,446.883728 
	C402.356842,445.917847 400.148895,445.097900 398.356079,443.732819 
	C391.130615,438.231171 384.033295,432.561157 377.028442,426.637085 
	C386.406738,418.533386 395.645294,410.745972 405.181091,403.127197 
	C406.661713,404.203613 407.890045,405.058960 409.021179,406.027740 
	C416.041962,412.041168 423.040894,418.080078 430.047119,424.110504 
z"/>
<path fill="#F7A52B" opacity="1.000000" stroke="none" 
	d="
M41.570248,152.125443 
	C49.115448,157.660034 56.322472,163.391220 63.589512,169.045303 
	C64.994232,170.138214 66.633652,170.929474 68.462112,172.287598 
	C67.842110,174.603317 66.753815,176.428787 66.036659,178.389969 
	C62.673988,187.585785 59.413406,196.818939 55.747292,206.013672 
	C50.714912,202.623932 46.098190,199.192123 41.374756,195.914093 
	C36.949886,192.843231 32.412022,189.935165 27.923882,186.955460 
	C30.632250,179.220001 33.227032,171.442078 36.096241,163.766754 
	C37.561184,159.847946 39.518322,156.113129 41.570248,152.125443 
z"/>
<path fill="#F7A52B" opacity="1.000000" stroke="none" 
	d="
M376.888672,426.953308 
	C384.033295,432.561157 391.130615,438.231171 398.356079,443.732819 
	C400.148895,445.097900 402.356842,445.917847 404.745422,447.014923 
	C394.648651,453.963226 384.180450,460.884949 373.308472,467.609497 
	C372.491882,466.702759 372.240326,465.790894 371.642029,465.313995 
	C363.084503,458.493164 354.480133,451.731049 346.052063,444.633820 
	C346.684570,444.155853 347.194275,444.072235 347.613464,443.831146 
	C357.377777,438.215485 367.132324,432.582825 376.888672,426.953308 
z"/>
<path fill="#F9B120" opacity="1.000000" stroke="none" 
	d="
M48.833733,272.002716 
	C43.940006,268.551971 39.038086,265.112732 34.154743,261.647369 
	C28.721876,257.792053 23.305929,253.912903 17.524410,250.023682 
	C18.083853,240.451584 19.011112,230.900833 19.909969,221.347412 
	C20.064816,219.701645 20.098963,218.044495 20.906454,216.201050 
	C26.279676,219.368698 30.930288,222.734909 35.592316,226.085236 
	C40.666843,229.731995 45.751953,233.364029 50.902840,237.427994 
	C50.648426,239.744888 50.124962,241.626602 50.032364,243.529297 
	C49.570621,253.017410 49.222095,262.511017 48.833733,272.002716 
z"/>
<path fill="#F8AC25" opacity="1.000000" stroke="none" 
	d="
M345.887054,444.954773 
	C354.480133,451.731049 363.084503,458.493164 371.642029,465.313995 
	C372.240326,465.790894 372.491882,466.702759 372.982941,467.754578 
	C362.978821,472.736908 352.896454,477.376984 342.428711,482.065887 
	C338.721252,478.759125 335.504150,475.290955 332.053101,472.073669 
	C326.501526,466.898071 320.795471,461.888123 315.468933,456.405029 
	C325.817780,452.319489 335.852417,448.637115 345.887054,444.954773 
z"/>
<path fill="#F49739" opacity="1.000000" stroke="none" 
	d="
M430.356445,423.975159 
	C423.040894,418.080078 416.041962,412.041168 409.021179,406.027740 
	C407.890045,405.058960 406.661713,404.203613 405.318176,402.816528 
	C411.493469,394.896271 417.828979,387.455322 424.531250,379.779999 
	C425.055328,379.301788 425.212616,379.057953 425.247925,378.699768 
	C425.125885,378.585419 425.320587,378.313477 425.320587,378.313477 
	C432.206726,383.710785 439.061401,389.149109 446.001770,394.475708 
	C447.674011,395.759125 449.630249,396.672455 451.781311,397.903046 
	C444.959717,406.646667 437.812714,415.243225 430.356445,423.975159 
z"/>
<path fill="#EB563B" opacity="1.000000" stroke="none" 
	d="
M431.166107,144.000412 
	C434.790466,146.187363 438.703827,148.011139 441.988281,150.625168 
	C455.046112,161.017502 467.882751,171.687332 480.880432,182.156189 
	C482.179108,183.202240 484.014435,183.582062 485.830353,184.076050 
	C488.363831,192.320526 490.667664,200.760056 492.566315,209.530563 
	C490.742859,209.047363 489.193848,208.397842 487.927460,207.392395 
	C479.413849,200.633087 471.046783,193.686310 462.450226,187.035492 
	C458.222778,183.764877 453.606445,180.996887 449.004669,177.676529 
	C446.681458,172.832428 444.685211,168.224396 442.319214,163.814743 
	C438.736603,157.137482 434.896698,150.598267 431.166107,144.000412 
z"/>
<path fill="#F8AC25" opacity="1.000000" stroke="none" 
	d="
M50.832451,237.002487 
	C45.751953,233.364029 40.666843,229.731995 35.592316,226.085236 
	C30.930288,222.734909 26.279676,219.368698 21.255024,215.983490 
	C22.653128,207.817780 24.412910,199.676437 26.194370,191.539825 
	C26.501738,190.135971 26.901089,188.752243 27.590916,187.157349 
	C32.412022,189.935165 36.949886,192.843231 41.374756,195.914093 
	C46.098190,199.192123 50.714912,202.623932 55.694939,206.429474 
	C54.285263,216.914398 52.558857,226.958435 50.832451,237.002487 
z"/>
<path fill="#EC603C" opacity="1.000000" stroke="none" 
	d="
M449.166107,178.001419 
	C453.606445,180.996887 458.222778,183.764877 462.450226,187.035492 
	C471.046783,193.686310 479.413849,200.633087 487.927460,207.392395 
	C489.193848,208.397842 490.742859,209.047363 492.497223,209.931931 
	C494.214447,218.716232 495.595581,227.430145 496.905029,236.574310 
	C490.447449,232.392090 484.045227,227.801956 477.680389,223.160629 
	C471.723969,218.817215 465.807159,214.419556 459.435944,209.633636 
	C455.721375,198.814819 452.443756,188.408112 449.166107,178.001419 
z"/>
<path fill="#EC603C" opacity="1.000000" stroke="none" 
	d="
M256.998108,48.834549 
	C252.649475,44.879311 248.351807,40.866161 243.940216,36.982449 
	C237.385834,31.212391 230.750839,25.533901 224.073578,19.490767 
	C231.029617,18.452917 238.062210,17.740736 245.548126,17.096022 
	C249.535110,20.690390 252.846237,24.481241 256.649536,27.688438 
	C264.223572,34.075397 272.098724,40.104134 279.769989,46.378033 
	C281.007355,47.389992 281.834595,48.903416 282.488800,50.578503 
	C273.750153,50.259499 265.374146,49.547024 256.998108,48.834549 
z"/>
<path fill="#F1823E" opacity="1.000000" stroke="none" 
	d="
M471.283020,367.017151 
	C471.142303,366.821320 471.296295,366.563019 471.662109,366.175842 
	C471.725220,366.319702 471.626495,366.622284 471.283020,367.017151 
z"/>
<path fill="#000000" opacity="1.000000" stroke="none" 
	d="
M256.569122,48.902466 
	C265.374146,49.547024 273.750153,50.259499 282.563965,50.904549 
	C290.885895,52.515751 298.862640,53.852856 306.631073,55.958569 
	C316.572388,58.653275 326.345825,61.967289 336.576721,65.066353 
	C347.500214,70.817909 358.361511,76.004448 368.479401,82.372269 
	C377.277679,87.909622 385.358673,94.626717 393.538269,101.098442 
	C408.499023,112.935478 419.585754,128.248611 431.010681,143.687683 
	C434.896698,150.598267 438.736603,157.137482 442.319214,163.814743 
	C444.685211,168.224396 446.681458,172.832428 449.004669,177.676529 
	C452.443756,188.408112 455.721375,198.814819 459.082703,209.612762 
	C463.149323,226.456329 464.141266,243.255585 464.917480,260.518921 
	C464.575378,262.166290 464.177155,263.353699 464.021362,264.572083 
	C462.333191,277.776672 460.683136,290.986176 459.094635,304.599518 
	C454.747742,317.849304 450.328857,330.693878 445.731171,343.843384 
	C438.932190,355.389465 432.311981,366.630646 425.506165,378.092651 
	C425.320587,378.313477 425.125885,378.585419 425.013763,378.652557 
	C424.655914,379.151276 424.410217,379.582825 424.164490,380.014374 
	C417.828979,387.455322 411.493469,394.896271 405.020935,402.647888 
	C395.645294,410.745972 386.406738,418.533386 377.028442,426.637024 
	C367.132324,432.582825 357.377777,438.215485 347.613464,443.831146 
	C347.194275,444.072235 346.684570,444.155853 346.052063,444.633789 
	C335.852417,448.637115 325.817780,452.319489 315.394714,456.079346 
	C301.289551,458.777313 287.572815,461.397736 273.426453,464.092468 
	C268.744293,464.442719 264.478638,465.075165 260.242126,464.918549 
	C252.031647,464.614990 243.813873,464.093658 235.643616,463.237946 
	C228.036484,462.441162 220.487152,461.092529 212.489014,459.951843 
	C212.065659,459.916840 212.040497,459.975281 211.982880,459.712036 
	C211.617386,459.356018 211.309525,459.263245 211.001663,459.170471 
	C189.465927,454.091522 169.056763,446.334045 150.084747,434.730896 
	C139.250366,428.104706 129.402527,419.578125 116.700630,416.306152 
	C116.077858,416.145752 115.422493,416.111877 114.389435,416.092957 
	C108.529099,415.450470 103.004448,413.854492 97.606400,414.205475 
	C87.200500,414.882172 77.031815,417.412842 68.557236,423.952606 
	C61.936722,429.061646 55.778992,434.770355 48.974579,440.589813 
	C48.974579,412.671326 48.974579,384.800751 48.903305,356.466431 
	C48.880066,341.978485 48.928097,327.954346 48.904797,313.466492 
	C48.881001,299.645233 48.928539,286.287689 48.904907,272.466431 
	C49.222095,262.511017 49.570621,253.017410 50.032364,243.529297 
	C50.124962,241.626602 50.648426,239.744888 50.902840,237.427994 
	C52.558857,226.958435 54.285263,216.914398 56.064018,206.454559 
	C59.413406,196.818939 62.673988,187.585785 66.036659,178.389969 
	C66.753815,176.428787 67.842110,174.603317 68.798370,172.357666 
	C75.886208,160.020309 82.917015,148.029907 90.010933,136.076965 
	C90.749275,134.832886 91.861900,133.810959 92.825623,132.345734 
	C100.825844,123.243813 108.665596,114.352631 116.843910,105.784607 
	C120.087624,102.386330 124.082718,99.705269 127.894577,96.394485 
	C140.732681,85.685745 154.606155,77.161362 169.575760,69.666298 
	C183.339081,64.675690 196.816391,59.931870 210.644440,55.010475 
	C217.020996,53.859879 223.033676,52.793808 229.076508,51.941402 
	C234.531342,51.171936 240.016342,50.610664 245.493439,50.006500 
	C249.037323,49.615593 252.590897,49.312710 256.569122,48.902466 
M142.264664,255.224274 
	C141.493637,255.817139 140.745300,256.442566 139.948135,256.997925 
	C130.381699,263.662384 128.486542,272.347107 133.175323,281.650940 
	C136.794891,288.833221 148.270111,292.068115 157.063004,285.922546 
	C161.306015,282.957001 165.107651,279.359985 169.733353,275.779968 
	C176.524780,270.203033 183.316208,264.626068 190.748520,258.771149 
	C197.284485,253.599640 204.958572,251.261520 213.834671,249.979111 
	C225.437897,250.630005 234.643982,255.895752 242.089493,264.599121 
	C246.348526,269.577667 250.158005,275.087830 255.047195,279.352905 
	C270.173859,292.548645 287.630280,299.077545 308.835144,295.978577 
	C314.783783,294.553314 321.131439,293.991425 326.576050,291.475464 
	C332.817993,288.591034 338.258850,283.973053 344.758942,280.008209 
	C347.856293,277.663971 351.031921,275.415344 354.034760,272.955750 
	C360.440399,267.709015 366.756409,262.352875 373.807709,257.006744 
	C376.219421,254.808258 379.025787,252.907883 380.959381,250.348206 
	C384.798035,245.266571 385.238739,239.457565 382.260345,233.836456 
	C379.541962,228.706116 375.401794,225.470657 369.161346,224.923645 
	C359.613586,224.086731 353.894836,230.057693 347.254608,235.987946 
	C337.464600,243.642334 327.674591,251.296707 317.220001,259.268799 
	C316.043335,259.755371 314.852356,260.210236 313.692261,260.733551 
	C303.887909,265.155945 294.162689,264.414734 284.705566,259.870728 
	C277.246002,256.286530 272.727600,249.610153 267.630951,243.350616 
	C254.146484,226.789383 236.329346,218.283646 214.128662,217.023361 
	C210.745926,217.349335 207.253937,217.252014 204.003586,218.090942 
	C197.584167,219.747849 191.298538,221.923080 184.466904,224.009735 
	C184.307281,224.064789 184.147675,224.119827 183.463943,224.117065 
	C183.271179,224.399551 183.078415,224.682037 182.167267,225.014130 
	C175.405548,229.995773 168.643829,234.977417 161.253677,240.231888 
	C155.130920,245.139420 149.008163,250.046951 142.264664,255.224274 
z"/>
<path fill="#FBBB17" opacity="1.000000" stroke="none" 
	d="
M211.161469,459.331665 
	C211.309525,459.263245 211.617386,459.356018 212.012543,459.700623 
	C211.811691,459.847717 211.552170,459.694550 211.161469,459.331665 
z"/>
<path fill="#F38E3F" opacity="1.000000" stroke="none" 
	d="
M424.531250,379.779999 
	C424.410217,379.582825 424.655914,379.151276 425.135803,378.766907 
	C425.212616,379.057953 425.055328,379.301788 424.531250,379.779999 
z"/>
<path fill="#F49739" opacity="1.000000" stroke="none" 
	d="
M307.997589,295.834015 
	C287.630280,299.077545 270.173859,292.548645 255.047195,279.352905 
	C250.158005,275.087830 246.348526,269.577667 242.089493,264.599121 
	C234.643982,255.895752 225.437897,250.630005 213.341843,249.581268 
	C209.293762,245.826950 205.798447,242.404037 202.169403,239.129318 
	C196.479584,233.994949 190.699463,228.960648 184.957581,223.883972 
	C191.298538,221.923080 197.584167,219.747849 204.003586,218.090942 
	C207.253937,217.252014 210.745926,217.349335 214.638596,217.418945 
	C217.132187,220.011627 218.916672,222.439667 221.140945,224.357727 
	C225.777451,228.355911 230.648300,232.082184 235.419662,235.924133 
	C257.089020,253.372498 278.782837,270.790649 300.394135,288.310638 
	C303.150269,290.545044 305.473694,293.313171 307.997589,295.834015 
z"/>
<path fill="#F3913D" opacity="1.000000" stroke="none" 
	d="
M308.416382,295.906311 
	C305.473694,293.313171 303.150269,290.545044 300.394135,288.310638 
	C278.782837,270.790649 257.089020,253.372498 235.419662,235.924133 
	C230.648300,232.082184 225.777451,228.355911 221.140945,224.357727 
	C218.916672,222.439667 217.132187,220.011627 215.073212,217.489548 
	C236.329346,218.283646 254.146484,226.789383 267.630951,243.350616 
	C272.727600,249.610153 277.246002,256.286530 284.705566,259.870728 
	C294.162689,264.414734 303.887909,265.155945 313.692261,260.733551 
	C314.852356,260.210236 316.043335,259.755371 317.848083,259.279114 
	C327.000031,266.229004 335.523865,273.168610 344.047729,280.108185 
	C338.258850,283.973053 332.817993,288.591034 326.576050,291.475464 
	C321.131439,293.991425 314.783783,294.553314 308.416382,295.906311 
z"/>
<path fill="#F2863E" opacity="1.000000" stroke="none" 
	d="
M344.403320,280.058197 
	C335.523865,273.168610 327.000031,266.229004 318.180359,259.120239 
	C327.674591,251.296707 337.464600,243.642334 347.678894,236.282684 
	C349.929352,238.411285 351.595886,240.446915 353.611237,242.041733 
	C360.040802,247.129761 366.600006,252.054047 373.109131,257.041565 
	C366.756409,262.352875 360.440399,267.709015 354.034760,272.955750 
	C351.031921,275.415344 347.856293,277.663971 344.403320,280.058197 
z"/>
<path fill="#F59C34" opacity="1.000000" stroke="none" 
	d="
M184.712250,223.946854 
	C190.699463,228.960648 196.479584,233.994949 202.169403,239.129318 
	C205.798447,242.404037 209.293762,245.826950 212.923691,249.508652 
	C204.958572,251.261520 197.284485,253.599640 190.102524,258.763245 
	C186.078568,256.447205 182.703003,254.135559 179.322113,251.831772 
	C173.510529,247.871613 167.695618,243.916367 161.882111,239.959061 
	C168.643829,234.977417 175.405548,229.995773 182.731323,224.889069 
	C183.557571,224.604416 183.788467,224.408035 183.988052,224.174850 
	C184.147675,224.119827 184.307281,224.064789 184.712250,223.946854 
z"/>
<path fill="#F6A22F" opacity="1.000000" stroke="none" 
	d="
M161.567902,240.095474 
	C167.695618,243.916367 173.510529,247.871613 179.322113,251.831772 
	C182.703003,254.135559 186.078568,256.447205 189.782074,258.902222 
	C183.316208,264.626068 176.524780,270.203033 169.125183,275.743530 
	C159.973145,268.789520 151.429276,261.872009 142.885391,254.954468 
	C149.008163,250.046951 155.130920,245.139420 161.567902,240.095474 
z"/>
<path fill="#F7A52B" opacity="1.000000" stroke="none" 
	d="
M142.575027,255.089371 
	C151.429276,261.872009 159.973145,268.789520 168.813080,275.877991 
	C165.107651,279.359985 161.306015,282.957001 157.063004,285.922546 
	C148.270111,292.068115 136.794891,288.833221 133.175323,281.650940 
	C128.486542,272.347107 130.381699,263.662384 139.948135,256.997925 
	C140.745300,256.442566 141.493637,255.817139 142.575027,255.089371 
z"/>
<path fill="#F1823E" opacity="1.000000" stroke="none" 
	d="
M373.458435,257.024170 
	C366.600006,252.054047 360.040802,247.129761 353.611237,242.041733 
	C351.595886,240.446915 349.929352,238.411285 348.032410,236.232285 
	C353.894836,230.057693 359.613586,224.086731 369.161346,224.923645 
	C375.401794,225.470657 379.541962,228.706116 382.260345,233.836456 
	C385.238739,239.457565 384.798035,245.266571 380.959381,250.348206 
	C379.025787,252.907883 376.219421,254.808258 373.458435,257.024170 
z"/>
<path fill="#F49739" opacity="1.000000" stroke="none" 
	d="
M183.725998,224.145966 
	C183.788467,224.408035 183.557571,224.604416 183.090515,224.864258 
	C183.078415,224.682037 183.271179,224.399551 183.725998,224.145966 
z"/>
</svg>